<svg xmlns="http://www.w3.org/2000/svg" xmlns:xlink="http://www.w3.org/1999/xlink" width="150" zoomAndPan="magnify" viewBox="0 0 112.5 112.499997" height="150" preserveAspectRatio="xMidYMid meet" version="1.0"><defs><clipPath id="id1"><path d="M 1.785156 18.460938 L 112.003906 18.460938 L 112.003906 94.210938 L 1.785156 94.210938 Z M 1.785156 18.460938 " clip-rule="nonzero"/></clipPath></defs><g clip-path="url(#id1)"><path fill="rgb(100%, 100%, 100%)" d="M 88.023438 32.261719 C 87.699219 32.261719 87.402344 32.558594 87.402344 32.871094 L 87.402344 42.0625 L 39.421875 42.0625 C 38.902344 42.0625 38.492188 42.386719 38.234375 42.75 C 37.980469 43.125 37.851562 43.578125 37.851562 44.058594 L 37.851562 68.742188 C 37.851562 69.226562 37.980469 69.675781 38.234375 70.050781 C 38.492188 70.425781 38.902344 70.738281 39.421875 70.738281 L 87.402344 70.738281 L 87.402344 79.929688 C 87.402344 80.167969 87.570312 80.414062 87.785156 80.511719 C 88.011719 80.597656 88.265625 80.519531 88.433594 80.355469 L 112.152344 56.828125 C 112.390625 56.601562 112.390625 56.210938 112.152344 55.984375 L 88.433594 32.449219 C 88.324219 32.339844 88.179688 32.253906 88.023438 32.261719 Z M 39.238281 18.460938 C 22.691406 18.65625 7.566406 29.835938 3.082031 46.59375 C -2.316406 66.789062 9.675781 87.628906 29.835938 93.042969 C 47.292969 97.722656 65.28125 89.320312 73.28125 73.855469 L 62.613281 73.855469 C 55.753906 82.9375 43.910156 87.410156 32.210938 84.277344 C 16.792969 80.136719 7.695312 64.390625 11.835938 48.945312 C 15.96875 33.492188 31.679688 24.386719 47.109375 28.527344 C 53.378906 30.207031 58.765625 33.933594 62.574219 38.949219 C 66.136719 38.957031 69.710938 38.976562 73.28125 38.988281 C 68.441406 29.617188 59.847656 22.558594 49.441406 19.769531 C 46.292969 18.921875 43.125 18.488281 40.003906 18.460938 C 39.738281 18.449219 39.5 18.449219 39.238281 18.460938 " fill-opacity="1" fill-rule="nonzero"/></g></svg>
