<svg xmlns="http://www.w3.org/2000/svg" width="31.5" viewBox="0 0 31.5 30" height="30" version="1.0"><defs><clipPath id="a"><path d="M 1 1 L 30.75 1 L 30.75 29.03125 L 1 29.03125 Z M 1 1"/></clipPath></defs><g clip-path="url(#a)"><path d="M 30.894531 28.226562 L 24.921875 22.65625 C 25.273438 22.21875 25.59375 21.761719 25.886719 21.28125 C 26.175781 20.804688 26.433594 20.308594 26.660156 19.796875 C 26.886719 19.285156 27.082031 18.761719 27.242188 18.226562 C 27.398438 17.6875 27.523438 17.144531 27.613281 16.59375 C 27.699219 16.039062 27.753906 15.484375 27.769531 14.925781 C 27.785156 14.367188 27.765625 13.808594 27.710938 13.253906 C 27.65625 12.695312 27.5625 12.144531 27.4375 11.601562 C 27.308594 11.054688 27.148438 10.523438 26.953125 9.996094 C 26.757812 9.472656 26.527344 8.964844 26.265625 8.46875 C 26.003906 7.976562 25.710938 7.5 25.386719 7.042969 C 25.0625 6.585938 24.710938 6.152344 24.332031 5.738281 C 23.949219 5.328125 23.546875 4.941406 23.117188 4.582031 C 22.6875 4.222656 22.234375 3.890625 21.761719 3.589844 C 21.289062 3.289062 20.796875 3.015625 20.289062 2.777344 C 19.78125 2.539062 19.261719 2.335938 18.726562 2.164062 C 18.195312 1.992188 17.648438 1.855469 17.097656 1.75 C 16.546875 1.648438 15.988281 1.582031 15.429688 1.550781 C 14.867188 1.523438 14.308594 1.527344 13.746094 1.570312 C 13.1875 1.609375 12.632812 1.6875 12.082031 1.800781 C 11.53125 1.910156 10.992188 2.058594 10.460938 2.242188 C 9.929688 2.421875 9.414062 2.636719 8.910156 2.886719 C 8.40625 3.136719 7.921875 3.414062 7.457031 3.726562 C 6.988281 4.035156 6.542969 4.375 6.121094 4.742188 C 5.699219 5.113281 5.300781 5.503906 4.929688 5.925781 C 4.554688 6.34375 4.210938 6.785156 3.898438 7.246094 C 3.582031 7.710938 3.300781 8.191406 3.046875 8.691406 C 2.792969 9.191406 2.574219 9.703125 2.386719 10.230469 C 2.203125 10.757812 2.050781 11.296875 1.933594 11.84375 C 1.816406 12.390625 1.738281 12.941406 1.691406 13.5 C 1.648438 14.058594 1.640625 14.617188 1.667969 15.175781 C 1.695312 15.734375 1.757812 16.289062 1.855469 16.839844 C 1.953125 17.386719 2.089844 17.929688 2.257812 18.464844 C 2.429688 18.996094 2.632812 19.515625 2.867188 20.023438 C 3.105469 20.53125 3.371094 21.019531 3.671875 21.492188 C 3.972656 21.964844 4.300781 22.417969 4.660156 22.847656 C 5.019531 23.277344 5.402344 23.683594 5.816406 24.066406 C 6.226562 24.445312 6.660156 24.800781 7.117188 25.125 C 7.574219 25.449219 8.050781 25.746094 8.546875 26.007812 C 9.039062 26.273438 9.550781 26.503906 10.074219 26.703125 C 10.601562 26.902344 11.136719 27.066406 11.683594 27.195312 C 12.226562 27.324219 12.78125 27.417969 13.339844 27.476562 C 13.898438 27.535156 14.457031 27.558594 15.019531 27.546875 C 15.578125 27.535156 16.136719 27.484375 16.691406 27.398438 C 17.25 27.316406 17.796875 27.195312 18.335938 27.039062 C 18.875 26.886719 19.402344 26.695312 19.917969 26.472656 C 20.433594 26.25 20.929688 25.996094 21.414062 25.710938 C 21.894531 25.421875 22.355469 25.105469 22.796875 24.757812 C 23.238281 24.414062 23.65625 24.039062 24.046875 23.640625 L 29.992188 29.1875 C 30.125 29.3125 30.28125 29.371094 30.464844 29.363281 C 30.648438 29.359375 30.800781 29.289062 30.925781 29.15625 C 31.050781 29.023438 31.109375 28.867188 31.101562 28.6875 C 31.097656 28.503906 31.027344 28.351562 30.894531 28.226562 Z M 14.722656 26.234375 C 13.953125 26.234375 13.1875 26.160156 12.429688 26.011719 C 11.675781 25.859375 10.9375 25.636719 10.226562 25.34375 C 9.511719 25.050781 8.835938 24.691406 8.195312 24.261719 C 7.554688 23.835938 6.960938 23.351562 6.414062 22.808594 C 5.867188 22.261719 5.378906 21.671875 4.953125 21.03125 C 4.523438 20.394531 4.160156 19.71875 3.867188 19.007812 C 3.570312 18.300781 3.347656 17.566406 3.195312 16.8125 C 3.046875 16.058594 2.972656 15.296875 2.972656 14.53125 C 2.972656 13.761719 3.046875 13 3.195312 12.246094 C 3.347656 11.492188 3.570312 10.761719 3.867188 10.050781 C 4.160156 9.339844 4.523438 8.664062 4.953125 8.027344 C 5.378906 7.386719 5.867188 6.796875 6.414062 6.253906 C 6.960938 5.710938 7.554688 5.222656 8.195312 4.796875 C 8.835938 4.371094 9.511719 4.007812 10.226562 3.714844 C 10.9375 3.421875 11.675781 3.199219 12.429688 3.050781 C 13.1875 2.898438 13.953125 2.824219 14.722656 2.824219 C 15.496094 2.824219 16.261719 2.898438 17.015625 3.050781 C 17.773438 3.199219 18.507812 3.421875 19.222656 3.714844 C 19.933594 4.007812 20.613281 4.371094 21.253906 4.796875 C 21.894531 5.222656 22.488281 5.710938 23.035156 6.253906 C 23.582031 6.796875 24.066406 7.386719 24.496094 8.027344 C 24.925781 8.664062 25.289062 9.339844 25.582031 10.050781 C 25.878906 10.761719 26.101562 11.492188 26.25 12.246094 C 26.402344 13 26.476562 13.761719 26.476562 14.53125 C 26.476562 15.296875 26.402344 16.058594 26.25 16.8125 C 26.097656 17.566406 25.875 18.296875 25.578125 19.007812 C 25.285156 19.71875 24.921875 20.390625 24.492188 21.03125 C 24.0625 21.667969 23.578125 22.257812 23.03125 22.804688 C 22.484375 23.347656 21.890625 23.832031 21.25 24.257812 C 20.609375 24.683594 19.933594 25.046875 19.21875 25.339844 C 18.507812 25.636719 17.773438 25.859375 17.015625 26.007812 C 16.261719 26.160156 15.496094 26.234375 14.722656 26.234375 Z M 14.722656 26.234375"/></g><path d="M 17.039062 6.152344 C 16.859375 6.125 16.695312 6.167969 16.550781 6.277344 C 16.40625 6.386719 16.320312 6.535156 16.296875 6.714844 C 16.269531 6.894531 16.3125 7.054688 16.425781 7.199219 C 16.535156 7.34375 16.679688 7.429688 16.859375 7.453125 C 16.90625 7.460938 21.304688 8.109375 21.964844 12.410156 C 21.988281 12.574219 22.0625 12.707031 22.1875 12.8125 C 22.3125 12.917969 22.453125 12.96875 22.617188 12.96875 C 22.652344 12.96875 22.683594 12.96875 22.71875 12.964844 C 22.898438 12.9375 23.042969 12.847656 23.148438 12.703125 C 23.257812 12.554688 23.296875 12.394531 23.269531 12.214844 C 22.464844 6.949219 17.09375 6.160156 17.039062 6.152344 Z M 17.039062 6.152344"/></svg>